<svg id="svg" version="1.1" xmlns="http://www.w3.org/2000/svg" xmlns:xlink="http://www.w3.org/1999/xlink" width="400" height="405.3811659192825" viewBox="0, 0, 400,405.3811659192825"><g id="svgg"><path id="path0" d="M0.000 202.600 L 0.000 405.200 200.000 405.200 L 400.000 405.200 400.000 202.600 L 400.000 0.000 200.000 0.000 L 0.000 0.000 0.000 202.600 M220.246 43.425 C 224.283 46.439,224.196 53.945,220.032 62.000 C 219.634 62.770,219.182 64.262,219.027 65.315 C 218.873 66.369,218.486 67.854,218.168 68.615 C 215.854 74.153,216.835 93.326,219.702 98.600 C 219.942 99.040,221.734 102.550,223.687 106.400 C 225.639 110.250,227.396 113.670,227.592 114.000 C 227.788 114.330,231.525 121.800,235.897 130.600 C 240.269 139.400,246.784 152.450,250.375 159.600 C 257.458 173.703,257.741 174.377,257.190 175.827 C 256.809 176.829,259.184 177.397,259.773 176.444 C 259.894 176.249,260.489 175.965,261.096 175.813 C 261.703 175.662,262.740 175.302,263.400 175.012 C 264.060 174.723,265.410 174.220,266.400 173.895 C 269.128 172.999,275.614 170.406,277.254 169.555 C 278.776 168.765,281.200 168.531,281.200 169.174 C 281.200 169.380,280.570 169.776,279.800 170.054 C 279.030 170.333,278.400 170.694,278.400 170.856 C 278.400 171.105,273.309 173.675,262.994 178.635 C 261.891 179.166,260.846 179.600,260.672 179.600 C 260.498 179.600,259.539 179.972,258.540 180.427 C 257.541 180.882,255.346 181.795,253.662 182.456 C 251.978 183.117,249.837 184.005,248.904 184.429 C 247.972 184.853,246.982 185.206,246.704 185.214 C 246.427 185.221,245.480 185.575,244.600 186.000 C 243.720 186.425,242.855 186.779,242.678 186.786 C 242.501 186.794,241.601 187.128,240.678 187.530 C 235.627 189.726,223.748 193.744,213.200 196.825 C 211.550 197.307,209.210 198.029,208.000 198.428 C 206.790 198.828,205.170 199.265,204.400 199.399 C 203.630 199.533,202.370 199.898,201.600 200.210 C 200.830 200.522,197.860 201.328,195.000 202.001 C 192.140 202.674,188.450 203.569,186.800 203.989 C 182.361 205.119,176.845 206.327,174.800 206.616 C 173.810 206.756,172.173 207.130,171.163 207.447 C 170.152 207.763,167.722 208.286,165.763 208.609 C 158.679 209.774,153.388 210.728,152.800 210.947 C 152.470 211.070,150.220 211.364,147.800 211.601 C 145.380 211.838,142.320 212.201,141.000 212.407 C 137.065 213.023,126.701 213.947,118.800 214.387 C 74.736 216.842,44.084 206.301,42.693 188.214 C 42.446 185.007,42.962 178.578,43.522 177.876 C 43.731 177.614,44.036 176.950,44.200 176.400 C 47.660 164.802,65.732 146.723,86.800 133.785 C 88.010 133.042,89.180 132.282,89.400 132.096 C 90.187 131.430,93.820 129.663,94.875 129.432 C 95.897 129.209,97.042 129.986,96.136 130.288 C 95.914 130.362,95.027 131.071,94.166 131.863 C 93.305 132.654,91.970 133.773,91.200 134.349 C 90.430 134.924,89.710 135.496,89.600 135.619 C 89.490 135.742,88.050 136.905,86.400 138.204 C 64.261 155.624,55.604 175.738,65.273 187.288 C 68.968 191.701,77.565 197.119,83.200 198.586 C 83.750 198.730,85.370 199.190,86.800 199.609 C 91.164 200.887,95.488 201.650,102.600 202.396 C 120.189 204.241,123.602 204.340,136.800 203.397 C 141.310 203.074,147.790 202.623,151.200 202.394 C 154.610 202.164,158.300 201.811,159.400 201.609 C 160.500 201.406,163.110 201.046,165.200 200.808 C 167.290 200.571,170.980 200.026,173.400 199.597 C 175.820 199.169,178.610 198.703,179.600 198.562 C 180.590 198.421,182.734 197.967,184.364 197.553 C 185.994 197.139,187.819 196.800,188.418 196.800 C 189.018 196.800,190.384 196.536,191.454 196.214 C 192.524 195.892,194.750 195.346,196.400 194.999 C 201.740 193.879,204.153 193.329,206.600 192.674 C 207.920 192.320,210.530 191.653,212.400 191.191 C 214.270 190.729,216.340 190.191,217.000 189.994 C 217.660 189.798,219.910 189.177,222.000 188.614 C 224.090 188.050,226.610 187.338,227.600 187.032 C 228.590 186.725,231.020 185.988,233.000 185.394 C 234.980 184.800,237.500 183.990,238.600 183.595 C 239.700 183.199,242.220 182.391,244.200 181.799 C 249.178 180.309,249.460 180.178,249.707 179.234 C 249.871 178.609,249.738 178.400,249.178 178.400 C 248.001 178.400,247.136 177.180,244.432 171.709 C 243.044 168.899,239.198 161.200,235.885 154.600 C 232.572 148.000,227.267 137.380,224.096 131.000 C 220.924 124.620,217.731 118.230,216.999 116.800 C 213.669 110.292,209.608 102.022,208.848 100.200 C 204.339 89.393,205.077 72.274,210.687 57.531 C 211.346 55.798,211.611 54.500,211.443 53.831 L 211.185 52.800 194.839 52.800 L 178.493 52.800 178.303 53.797 C 178.198 54.346,178.370 55.291,178.686 55.897 C 179.001 56.504,179.496 57.900,179.786 59.000 C 181.932 67.158,181.334 66.573,187.685 66.739 C 193.090 66.881,193.763 67.052,194.108 68.369 C 194.515 69.927,193.831 70.192,188.849 70.400 C 183.051 70.642,183.407 70.299,183.537 75.518 C 183.680 81.220,183.823 81.374,189.105 81.473 C 196.405 81.610,196.541 84.840,189.263 85.200 C 183.919 85.464,183.656 85.708,183.546 90.499 C 183.446 94.809,183.156 94.559,188.533 94.800 C 193.539 95.024,194.000 95.188,194.000 96.744 C 194.000 98.606,193.444 98.800,188.094 98.800 C 182.041 98.800,181.950 98.847,179.986 102.981 C 177.479 108.257,177.304 108.113,186.552 108.395 C 194.096 108.624,195.222 109.049,193.772 111.119 C 193.171 111.977,192.946 112.000,185.210 112.000 C 175.461 112.000,175.671 111.915,173.300 116.817 C 170.724 122.143,169.975 121.750,183.200 122.000 L 193.800 122.200 193.921 123.649 C 194.096 125.736,193.968 125.758,181.000 125.916 C 167.630 126.078,168.815 125.708,166.384 130.480 C 163.820 135.510,162.965 135.200,179.405 135.200 L 193.182 135.200 193.837 136.200 C 194.444 137.126,194.444 137.274,193.837 138.200 L 193.182 139.200 178.080 139.200 C 165.331 139.200,162.845 139.293,162.125 139.798 C 161.157 140.475,158.472 145.684,158.308 147.200 L 158.200 148.200 175.400 148.401 C 193.901 148.617,194.108 148.641,193.922 150.542 C 193.703 152.772,193.561 152.788,173.762 152.794 C 153.028 152.801,155.460 152.255,152.845 157.490 L 151.201 160.780 152.381 161.390 C 153.391 161.913,156.398 162.000,173.352 162.000 C 194.632 162.000,194.400 161.978,194.400 164.014 C 194.400 165.532,193.427 165.600,171.326 165.613 C 151.050 165.626,149.749 165.669,148.922 166.360 C 147.861 167.245,144.800 173.189,144.800 174.363 L 144.800 175.200 167.903 175.200 C 194.027 175.200,194.584 175.255,194.098 177.799 C 193.797 179.372,193.480 179.393,167.033 179.600 C 150.524 179.729,141.419 179.942,141.332 180.200 C 141.258 180.420,140.430 182.167,139.492 184.083 C 136.955 189.260,134.197 188.754,165.692 188.887 C 194.767 189.009,194.400 188.982,194.400 191.000 C 194.400 192.843,194.742 192.821,164.496 192.913 C 132.415 193.011,135.263 192.709,133.512 196.200 C 131.880 199.455,131.589 199.600,126.704 199.600 C 122.120 199.600,120.800 199.250,120.800 198.034 C 120.800 197.628,124.787 189.399,129.659 179.748 C 134.532 170.096,139.257 160.670,140.159 158.801 C 141.062 156.932,145.200 148.652,149.355 140.401 C 156.276 126.660,159.603 120.007,165.355 108.400 C 166.500 106.090,167.994 103.120,168.677 101.800 C 170.911 97.476,171.563 95.838,172.182 93.000 C 172.518 91.460,172.970 89.480,173.187 88.600 C 173.849 85.912,173.670 78.679,172.837 74.463 C 172.417 72.338,171.954 69.700,171.808 68.600 C 171.533 66.531,170.540 63.523,168.465 58.468 C 165.332 50.837,166.303 44.690,170.942 42.792 C 173.017 41.943,219.053 42.534,220.246 43.425 M281.131 80.297 C 285.409 83.070,285.507 88.700,281.332 91.763 C 274.604 96.698,265.637 88.518,270.728 82.091 C 273.205 78.964,277.842 78.164,281.131 80.297 M257.640 80.062 C 264.783 82.490,265.649 90.689,259.116 94.039 C 252.984 97.184,245.593 90.659,248.366 84.551 C 249.959 81.044,254.320 78.934,257.640 80.062 M301.074 80.425 C 305.148 81.960,306.703 87.260,304.102 90.743 C 300.885 95.053,293.778 94.318,291.565 89.446 C 288.945 83.678,294.848 78.077,301.074 80.425 M322.258 84.069 C 326.574 86.098,327.046 92.776,323.066 95.496 C 320.078 97.539,315.888 96.889,313.625 94.032 C 309.115 88.338,315.548 80.915,322.258 84.069 M234.959 85.623 C 240.373 88.018,240.522 96.485,235.197 99.201 C 228.958 102.384,221.205 96.781,223.207 90.536 C 224.784 85.616,230.007 83.432,234.959 85.623 M340.925 92.143 C 347.690 94.969,345.962 104.369,338.662 104.456 C 332.514 104.529,329.471 97.857,333.792 93.781 C 335.896 91.797,338.607 91.174,340.925 92.143 M353.241 110.108 C 357.124 112.702,356.894 118.711,352.832 120.784 C 348.720 122.881,343.520 120.069,343.520 115.749 C 343.520 110.665,349.169 107.388,353.241 110.108 M98.080 128.480 C 97.707 128.853,97.493 128.853,97.120 128.480 C 96.747 128.107,96.853 128.000,97.600 128.000 C 98.347 128.000,98.453 128.107,98.080 128.480 M347.343 130.150 C 348.846 130.779,351.039 133.248,351.299 134.604 C 352.315 139.919,346.031 143.586,341.385 140.390 C 335.613 136.418,340.841 127.434,347.343 130.150 M336.219 148.821 C 341.500 154.235,333.714 161.781,328.128 156.662 C 324.382 153.229,327.071 147.200,332.350 147.200 C 334.497 147.200,334.735 147.300,336.219 148.821 M318.641 162.015 C 322.088 163.326,323.109 168.404,320.440 170.962 C 316.934 174.320,311.600 172.120,311.600 167.316 C 311.600 163.062,314.886 160.588,318.641 162.015 M301.911 175.475 C 306.624 178.180,304.885 185.243,299.520 185.186 C 296.794 185.157,294.733 183.015,294.733 180.213 C 294.733 176.136,298.607 173.579,301.911 175.475 M251.300 178.676 C 251.685 178.776,252.315 178.776,252.700 178.676 C 253.085 178.575,252.770 178.493,252.000 178.493 C 251.230 178.493,250.915 178.575,251.300 178.676 M284.213 187.142 C 288.250 189.604,286.852 195.679,282.115 196.257 C 278.082 196.749,275.765 192.397,277.869 188.279 C 278.854 186.352,281.994 185.790,284.213 187.142 M265.255 197.428 C 266.002 197.815,266.760 198.712,267.222 199.757 C 269.578 205.082,262.580 209.050,259.293 204.253 C 256.601 200.325,261.037 195.247,265.255 197.428 M246.316 207.026 C 250.843 210.197,247.336 217.172,242.278 215.058 C 240.596 214.356,240.000 213.202,240.000 210.650 C 240.000 207.324,243.706 205.198,246.316 207.026 M274.322 207.900 C 274.935 208.767,282.811 224.589,284.428 228.200 C 286.544 232.927,284.706 237.658,280.059 239.449 C 277.821 240.311,201.983 240.830,199.794 239.998 L 198.676 239.573 199.785 238.415 C 200.814 237.342,203.569 236.178,208.800 234.606 C 209.790 234.309,212.130 233.493,214.000 232.794 C 215.870 232.094,218.831 231.089,220.579 230.561 L 223.759 229.600 247.799 229.600 C 265.099 229.600,271.966 229.474,272.291 229.149 C 272.856 228.584,272.581 227.824,269.924 222.600 C 263.835 210.629,263.879 211.297,268.976 208.230 C 271.885 206.480,273.260 206.395,274.322 207.900 M227.140 216.611 C 230.085 219.089,228.192 224.041,224.320 223.987 C 223.112 223.971,221.225 222.282,220.815 220.851 C 219.696 216.949,224.063 214.021,227.140 216.611 M207.142 224.342 C 208.654 225.505,208.786 228.280,207.407 229.918 C 205.090 232.673,201.200 231.095,201.200 227.400 C 201.200 224.098,204.569 222.364,207.142 224.342 M186.223 231.106 C 189.077 233.088,187.948 238.400,184.673 238.400 C 183.073 238.400,181.200 236.355,181.200 234.609 C 181.200 232.062,184.393 229.835,186.223 231.106 M166.115 238.005 C 168.153 239.607,167.837 242.803,165.546 243.766 C 163.179 244.761,161.387 243.412,161.458 240.688 C 161.534 237.811,164.036 236.369,166.115 238.005 M145.818 244.182 C 147.115 245.479,147.059 246.839,145.644 248.352 C 143.696 250.439,141.200 249.033,141.200 245.849 C 141.200 243.327,143.965 242.329,145.818 244.182 M124.546 248.829 C 126.250 250.169,125.848 252.405,123.696 253.551 C 121.928 254.493,120.168 251.547,121.260 249.474 C 122.148 247.786,123.006 247.618,124.546 248.829 M103.520 252.880 C 103.784 253.144,104.000 253.918,104.000 254.600 C 104.000 257.545,100.719 257.685,100.344 254.756 C 100.101 252.861,102.239 251.599,103.520 252.880 M79.116 258.500 C 79.754 259.272,79.223 261.139,78.281 261.438 C 77.406 261.716,76.000 260.444,76.000 259.376 C 76.000 258.242,78.355 257.580,79.116 258.500 M131.719 293.969 C 133.160 294.517,133.259 295.127,133.216 303.237 C 133.167 312.645,133.388 313.139,136.494 310.568 C 143.053 305.137,155.579 308.487,160.583 317.010 C 163.607 322.160,163.831 334.029,160.965 337.231 C 160.654 337.579,160.400 338.050,160.400 338.278 C 160.400 341.224,152.618 346.395,146.694 347.387 C 145.016 347.667,138.611 346.540,137.867 345.834 C 135.772 343.843,133.715 343.368,133.400 344.802 C 132.670 348.124,124.981 348.701,124.192 345.493 C 124.072 345.002,124.024 333.469,124.086 319.865 L 124.200 295.129 125.144 294.365 C 126.185 293.522,129.948 293.296,131.719 293.969 M53.111 297.423 L 54.000 298.045 54.000 317.346 C 54.000 332.171,54.116 336.799,54.500 337.301 C 54.934 337.868,56.283 337.971,64.659 338.078 C 76.387 338.226,76.000 338.065,76.000 342.800 C 76.000 347.701,77.039 347.400,60.123 347.400 L 45.929 347.400 45.165 346.456 C 43.943 344.947,43.976 298.824,45.200 297.600 C 46.244 296.556,51.699 296.434,53.111 297.423 M199.377 297.689 C 199.920 298.463,200.000 301.032,200.000 317.613 C 200.000 333.013,200.104 336.789,200.543 337.390 C 201.048 338.081,201.724 338.126,210.309 338.038 C 222.343 337.916,222.400 337.943,222.400 343.856 C 222.400 347.598,222.405 347.597,206.480 347.599 C 192.518 347.600,191.292 347.459,190.648 345.782 C 190.512 345.426,190.400 334.676,190.400 321.893 L 190.400 298.652 191.270 297.726 C 192.556 296.357,198.426 296.330,199.377 297.689 M106.427 309.452 C 111.351 311.772,113.352 314.779,113.988 320.815 C 114.561 326.260,114.522 344.624,113.935 345.726 C 112.476 348.465,107.799 348.312,105.932 345.464 L 105.036 344.098 103.018 345.183 C 92.212 350.989,80.579 345.391,80.611 334.400 C 80.636 325.690,86.247 322.002,99.477 322.001 C 104.700 322.000,105.748 321.420,104.585 319.172 C 102.884 315.882,96.762 315.067,90.887 317.349 C 87.648 318.607,86.655 318.546,85.107 316.997 C 79.462 311.353,97.167 305.088,106.427 309.452 M253.728 309.112 C 267.402 314.088,271.443 331.077,261.402 341.372 C 250.032 353.029,229.430 346.849,227.243 331.125 C 225.863 321.204,230.278 313.149,239.133 309.430 C 243.191 307.726,249.540 307.588,253.728 309.112 M294.269 308.598 C 295.376 308.927,296.947 309.647,297.759 310.198 C 299.377 311.296,300.800 311.509,300.800 310.654 C 300.800 308.909,302.375 308.000,305.400 308.000 C 310.392 308.000,310.087 306.588,309.893 328.789 C 309.697 351.338,309.529 352.285,304.800 357.534 C 304.037 358.380,300.927 360.800,300.602 360.800 C 300.467 360.800,299.511 361.199,298.478 361.686 C 295.216 363.225,283.976 363.159,281.800 361.587 C 281.580 361.428,280.956 361.161,280.413 360.994 C 275.844 359.589,274.561 356.906,276.825 353.488 C 278.400 351.110,279.114 350.912,281.703 352.136 C 287.689 354.966,291.286 355.388,294.910 353.685 C 295.945 353.198,296.883 352.800,296.996 352.800 C 298.449 352.800,301.194 347.171,301.190 344.200 C 301.186 342.160,300.761 341.931,298.989 343.013 C 298.115 343.547,296.770 344.262,296.000 344.602 C 295.230 344.942,294.287 345.396,293.905 345.610 C 292.635 346.323,286.397 346.074,284.151 345.221 C 263.118 337.227,272.789 302.219,294.269 308.598 M344.196 308.956 C 348.067 310.361,352.688 313.825,354.251 316.495 C 363.763 332.735,351.189 350.693,333.000 346.844 C 315.392 343.118,311.745 319.753,327.344 310.611 C 332.108 307.820,339.159 307.127,344.196 308.956 M287.757 316.317 C 279.077 319.236,279.474 334.375,288.300 337.026 C 299.317 340.335,305.667 324.043,296.016 317.229 C 294.578 316.214,289.674 315.672,287.757 316.317 M139.400 317.263 C 129.109 322.584,132.243 338.784,143.565 338.797 C 151.668 338.806,156.521 330.331,152.853 322.577 C 151.660 320.056,148.845 317.200,147.552 317.200 C 147.164 317.200,146.736 317.020,146.600 316.800 C 146.135 316.047,141.128 316.369,139.400 317.263 M242.825 317.164 C 235.539 320.119,233.634 330.614,239.385 336.124 C 244.549 341.072,253.585 339.367,256.695 332.857 C 261.125 323.586,252.119 313.396,242.825 317.164 M333.400 317.249 C 327.742 319.528,325.030 327.402,327.899 333.224 C 332.149 341.847,345.678 340.388,348.028 331.053 C 350.397 321.645,342.047 313.766,333.400 317.249 M95.161 329.205 C 91.424 329.837,89.600 331.526,89.600 334.355 C 89.600 340.544,101.346 341.029,104.374 334.966 C 106.939 329.831,103.644 327.770,95.161 329.205 " stroke="none" fill="#f3fbfb" fill-rule="evenodd"></path><path id="path1" d="M172.748 43.580 C 168.245 44.970,167.098 51.373,170.153 58.064 C 173.420 65.220,174.560 71.452,174.567 82.200 C 174.574 93.650,174.545 93.759,167.863 107.137 C 165.188 112.493,162.370 118.136,161.600 119.679 C 153.222 136.459,126.778 189.216,125.049 192.600 C 122.040 198.489,122.128 198.800,126.800 198.800 C 130.060 198.800,130.497 198.523,132.000 195.503 C 134.332 190.816,131.426 191.218,163.800 191.104 L 191.800 191.006 164.438 190.900 C 145.038 190.825,136.919 190.665,136.538 190.348 C 135.867 189.792,135.850 187.699,136.506 186.489 C 136.778 185.987,137.777 184.097,138.727 182.289 C 139.887 180.079,140.967 178.616,142.018 177.830 C 143.204 176.943,143.478 176.535,143.153 176.144 C 141.886 174.617,146.049 165.737,148.413 164.923 C 149.413 164.579,155.779 164.431,171.200 164.394 C 183.537 164.365,192.261 164.198,191.800 164.000 C 191.360 163.811,181.983 163.644,170.962 163.628 C 149.003 163.597,149.600 163.663,149.600 161.260 C 149.600 159.584,152.888 153.550,154.895 151.543 C 156.615 149.823,156.780 149.510,156.371 148.745 C 155.705 147.502,160.007 139.008,161.854 137.916 C 163.020 137.227,163.120 136.991,163.275 134.560 C 163.366 133.122,163.612 131.823,163.821 131.673 C 164.029 131.523,164.830 130.073,165.600 128.451 C 166.676 126.185,167.400 125.227,168.728 124.312 C 170.019 123.424,170.381 122.956,170.161 122.462 C 169.585 121.168,169.986 119.617,171.773 116.229 C 174.159 111.706,174.697 110.920,175.566 110.693 C 176.088 110.556,176.374 109.952,176.579 108.551 C 176.736 107.478,177.570 105.025,178.432 103.099 C 179.295 101.174,180.000 99.517,180.000 99.417 C 180.000 99.317,180.448 98.575,180.997 97.767 C 181.773 96.623,181.943 95.978,181.768 94.849 C 181.644 94.049,181.825 92.332,182.172 91.016 C 182.517 89.705,182.800 87.852,182.800 86.898 C 182.800 85.590,183.041 84.922,183.782 84.182 C 184.346 83.618,184.543 83.200,184.246 83.200 C 183.521 83.200,182.800 81.440,182.803 79.681 C 182.804 78.867,182.499 76.602,182.125 74.649 C 181.498 71.379,181.495 71.009,182.087 69.978 C 182.616 69.055,182.633 68.822,182.183 68.649 C 181.353 68.330,180.065 65.530,179.370 62.533 C 179.028 61.057,178.588 59.550,178.392 59.185 C 178.196 58.819,177.684 57.250,177.254 55.697 C 175.925 50.900,174.741 51.200,195.016 51.200 C 215.568 51.200,215.040 51.024,212.445 57.000 C 212.062 57.880,211.336 60.040,210.830 61.800 C 210.325 63.560,209.659 65.851,209.351 66.890 C 208.295 70.452,207.115 80.773,207.350 84.400 C 208.059 95.362,209.142 98.354,220.458 120.600 C 221.129 121.920,222.394 124.440,223.268 126.200 C 224.143 127.960,225.016 129.670,225.209 130.000 C 225.402 130.330,228.644 136.810,232.413 144.400 C 236.182 151.990,239.417 158.470,239.603 158.800 C 239.788 159.130,241.875 163.242,244.240 167.937 C 249.359 178.097,249.331 178.075,254.122 175.765 C 255.444 175.127,255.611 174.897,255.390 174.015 C 255.156 173.079,250.737 163.905,249.410 161.600 C 248.108 159.338,218.000 98.494,218.000 98.124 C 218.000 97.904,217.711 97.144,217.358 96.436 C 217.005 95.728,216.567 94.036,216.385 92.675 C 216.203 91.314,215.861 89.571,215.627 88.803 C 215.094 87.058,215.083 77.156,215.611 75.000 C 215.827 74.120,216.175 72.140,216.385 70.600 C 216.751 67.911,217.447 65.581,220.625 56.400 C 222.697 50.415,222.233 46.725,219.113 44.385 L 217.800 43.400 195.800 43.328 C 183.700 43.288,173.327 43.402,172.748 43.580 M269.727 209.486 C 266.179 211.303,266.183 211.338,270.779 220.555 C 274.808 228.634,275.203 229.970,273.835 230.894 C 273.596 231.056,262.420 231.194,249.000 231.202 C 229.925 231.214,224.076 231.335,222.200 231.760 C 219.855 232.291,211.787 235.077,209.400 236.179 C 208.740 236.484,207.525 236.859,206.700 237.011 C 205.232 237.283,204.819 237.717,205.581 238.188 C 206.163 238.548,276.764 238.405,278.664 238.040 C 284.641 236.892,284.818 232.666,279.355 221.512 C 272.295 207.096,272.905 207.858,269.727 209.486 M126.011 295.979 C 125.731 296.502,125.628 304.832,125.697 321.279 L 125.800 345.800 127.773 345.925 C 130.913 346.124,131.600 345.818,131.600 344.221 C 131.600 342.839,132.436 341.600,133.367 341.600 C 134.048 341.600,136.321 342.748,136.630 343.248 C 136.765 343.466,137.893 344.130,139.138 344.723 C 146.511 348.234,156.186 344.228,160.133 336.030 C 162.073 332.002,162.066 323.128,160.119 319.191 C 155.409 309.664,143.177 306.669,135.720 313.217 C 134.331 314.436,132.892 314.732,132.119 313.959 C 131.812 313.652,131.744 311.124,131.896 305.651 C 132.171 295.782,131.988 295.200,128.604 295.200 C 126.857 295.200,126.346 295.354,126.011 295.979 M46.509 298.324 C 45.770 298.794,45.743 345.190,46.481 345.659 C 47.247 346.144,73.093 346.086,74.007 345.596 C 74.653 345.251,74.726 344.890,74.517 343.096 C 74.149 339.947,74.215 339.966,63.565 339.877 L 54.331 339.800 53.365 338.678 L 52.400 337.555 52.400 318.258 C 52.400 303.782,52.280 298.840,51.920 298.480 C 51.389 297.949,47.285 297.831,46.509 298.324 M192.190 298.483 C 192.081 298.767,192.039 309.530,192.096 322.400 L 192.200 345.800 206.400 345.800 L 220.600 345.800 220.720 343.712 C 220.940 339.902,221.406 340.070,210.213 339.926 C 201.455 339.813,200.352 339.725,199.714 339.086 C 199.053 338.425,198.985 336.871,198.800 318.286 L 198.600 298.200 195.494 298.083 C 193.236 297.998,192.334 298.107,192.190 298.483 M303.324 310.084 C 302.984 310.460,302.588 311.340,302.445 312.041 C 302.024 314.099,300.862 314.215,298.127 312.470 C 287.515 305.701,275.246 311.909,274.190 324.580 C 273.837 328.826,274.505 334.062,275.596 335.594 C 276.038 336.215,276.400 336.893,276.400 337.101 C 276.400 337.933,281.126 342.323,283.000 343.231 C 287.697 345.507,295.529 344.375,298.860 340.939 C 302.366 337.321,304.021 341.290,301.937 348.321 C 299.846 355.375,291.163 358.200,283.045 354.467 C 279.592 352.879,278.984 352.883,277.986 354.500 C 276.248 357.316,278.059 359.070,284.689 360.992 C 294.553 363.852,304.023 359.504,307.138 350.687 L 308.158 347.800 308.379 329.507 C 308.501 319.447,308.445 310.868,308.255 310.443 C 307.769 309.358,304.215 309.099,303.324 310.084 M94.800 309.993 C 90.766 310.618,86.777 312.348,85.992 313.814 C 84.902 315.851,87.592 317.596,89.714 316.229 C 95.184 312.707,104.820 314.414,106.395 319.184 C 107.671 323.051,106.132 323.995,98.520 324.014 C 86.544 324.045,81.983 326.968,82.006 334.597 C 82.037 344.815,94.194 349.705,103.323 343.172 C 105.411 341.678,106.767 342.028,107.383 344.221 L 107.826 345.800 110.213 345.800 L 112.600 345.800 112.600 332.200 L 112.600 318.600 111.532 316.400 C 108.943 311.065,102.877 308.743,94.800 309.993 M242.859 310.024 C 229.813 312.346,223.823 327.750,231.702 338.716 C 239.334 349.340,257.854 347.941,263.271 336.332 C 270.065 321.773,258.754 307.196,242.859 310.024 M333.637 310.027 C 325.300 311.510,319.200 319.019,319.200 327.800 C 319.200 349.340,350.500 352.990,355.642 332.050 C 358.890 318.821,347.618 307.540,333.637 310.027 M293.775 314.573 C 306.711 318.466,304.393 338.812,290.998 338.951 C 284.364 339.020,279.960 334.197,279.898 326.795 C 279.826 318.177,286.429 312.362,293.775 314.573 M146.819 315.241 C 152.400 316.438,156.538 324.046,155.202 330.652 C 152.634 343.347,135.783 344.103,132.338 331.679 C 129.501 321.446,136.850 313.104,146.819 315.241 M250.200 315.240 C 261.055 318.195,262.294 334.909,252.000 339.511 C 248.625 341.020,245.572 341.124,242.410 339.837 C 227.894 333.930,235.113 311.133,250.200 315.240 M340.847 315.341 C 343.753 316.025,348.341 319.467,348.392 321.000 C 348.399 321.220,348.702 321.940,349.065 322.600 C 350.248 324.750,350.054 331.324,348.735 333.800 C 342.445 345.606,325.200 341.283,325.200 327.901 C 325.200 318.977,332.250 313.318,340.847 315.341 M106.090 328.812 C 108.399 331.663,105.568 337.989,101.000 340.186 C 92.252 344.395,82.772 333.851,90.956 329.015 C 93.726 327.378,104.808 327.229,106.090 328.812 " stroke="none" fill="#212f7f" fill-rule="evenodd"></path><path id="path2" d="M84.200 137.200 C 83.429 137.531,83.431 137.545,84.276 137.572 C 84.758 137.587,85.264 137.420,85.400 137.200 C 85.692 136.727,85.301 136.727,84.200 137.200 M82.095 138.414 C 81.597 138.614,80.967 138.961,80.695 139.184 C 79.815 139.906,76.633 142.187,75.420 142.965 C 69.299 146.896,57.965 157.506,52.233 164.671 C 47.871 170.123,45.814 174.126,43.536 181.593 C 42.341 185.510,43.954 192.506,47.042 196.806 C 48.235 198.466,52.371 202.400,52.923 202.400 C 53.030 202.400,54.330 203.136,55.812 204.036 C 57.293 204.936,59.231 205.929,60.118 206.242 C 61.005 206.555,61.926 206.963,62.165 207.148 C 63.438 208.137,74.900 210.910,82.200 211.995 C 103.215 215.117,137.984 213.196,166.800 207.321 C 168.450 206.984,170.880 206.531,172.200 206.313 C 173.520 206.095,175.413 205.676,176.406 205.381 C 177.399 205.087,179.450 204.648,180.964 204.406 C 182.477 204.164,184.071 203.776,184.504 203.544 C 184.938 203.312,187.027 202.790,189.146 202.383 C 194.715 201.315,204.345 198.836,206.200 197.993 C 206.640 197.793,207.990 197.368,209.200 197.049 C 210.410 196.730,211.940 196.283,212.600 196.056 C 213.260 195.829,217.130 194.564,221.200 193.244 C 227.699 191.138,232.517 189.496,240.344 186.721 C 241.523 186.303,242.873 185.713,243.344 185.410 C 243.815 185.107,244.869 184.737,245.687 184.587 C 246.505 184.438,247.568 183.975,248.049 183.558 C 248.529 183.141,249.411 182.800,250.007 182.800 C 250.604 182.800,251.536 182.451,252.078 182.025 C 252.620 181.598,253.589 181.132,254.232 180.988 C 256.475 180.485,256.810 180.340,256.582 179.971 C 256.238 179.414,253.690 179.525,252.260 180.160 C 251.086 180.682,245.561 182.473,239.000 184.458 C 237.460 184.924,235.594 185.559,234.854 185.868 C 234.114 186.177,232.494 186.679,231.254 186.983 C 230.014 187.287,228.460 187.713,227.800 187.930 C 227.140 188.146,225.340 188.693,223.800 189.146 C 222.260 189.599,219.486 190.426,217.635 190.984 C 215.785 191.543,214.014 192.000,213.701 192.000 C 213.387 192.000,211.841 192.351,210.265 192.780 C 206.676 193.757,198.256 195.712,193.000 196.789 C 190.800 197.239,187.470 197.956,185.600 198.381 C 183.730 198.806,181.030 199.257,179.600 199.383 C 178.170 199.509,176.280 199.862,175.400 200.166 C 174.520 200.471,172.360 200.837,170.600 200.980 C 168.840 201.123,166.140 201.489,164.600 201.794 C 163.060 202.099,159.280 202.555,156.200 202.806 C 153.120 203.057,149.268 203.430,147.639 203.636 C 138.194 204.826,116.543 205.037,107.600 204.025 C 98.881 203.038,93.673 202.322,92.600 201.962 C 91.940 201.741,90.074 201.303,88.453 200.990 C 86.833 200.677,85.303 200.257,85.053 200.057 C 84.804 199.856,83.970 199.567,83.200 199.414 C 77.447 198.272,68.455 192.936,64.846 188.523 C 55.242 176.779,59.499 162.407,77.960 144.254 C 84.118 138.198,84.709 137.364,82.095 138.414 M257.467 178.267 C 256.889 178.844,257.268 179.015,258.803 178.868 C 259.684 178.784,260.505 178.555,260.626 178.358 C 260.879 177.948,257.872 177.861,257.467 178.267 " stroke="none" fill="#e82517" fill-rule="evenodd"></path><path id="path3" d="M273.290 79.864 C 266.313 83.303,269.073 93.216,277.000 93.189 C 284.250 93.163,287.127 84.184,281.131 80.297 C 279.115 78.990,275.472 78.788,273.290 79.864 M253.491 80.131 C 247.848 81.886,246.025 87.947,249.848 92.245 C 254.553 97.535,263.600 94.063,263.600 86.967 C 263.600 82.465,258.052 78.712,253.491 80.131 M294.814 80.632 C 290.064 82.693,289.530 88.970,293.825 92.246 C 295.810 93.760,300.418 93.940,302.246 92.575 C 309.418 87.221,303.086 77.045,294.814 80.632 M316.200 83.952 C 312.058 85.854,310.861 90.542,313.625 94.032 C 316.628 97.823,322.991 97.443,324.941 93.356 C 327.896 87.158,322.309 81.147,316.200 83.952 M227.354 85.565 C 224.589 86.820,222.426 90.628,222.959 93.296 C 224.899 102.995,239.000 102.207,239.000 92.400 C 239.000 86.452,233.067 82.970,227.354 85.565 M336.453 92.112 C 329.168 94.440,330.977 104.548,338.662 104.456 C 345.962 104.369,347.690 94.969,340.925 92.143 C 339.425 91.516,338.342 91.509,336.453 92.112 M346.292 110.300 C 342.410 113.271,342.668 118.609,346.794 120.700 C 352.501 123.593,358.151 118.084,355.299 112.408 C 353.665 109.156,349.163 108.102,346.292 110.300 M91.956 130.749 C 86.195 134.033,83.188 136.008,74.734 142.064 C 65.456 148.710,53.445 160.313,49.299 166.636 C 38.028 183.829,41.103 198.500,57.555 206.026 C 58.570 206.490,60.055 207.214,60.854 207.635 C 61.654 208.056,62.554 208.401,62.854 208.402 C 63.155 208.404,63.864 208.647,64.431 208.943 C 75.096 214.508,113.560 216.361,139.400 212.555 C 141.600 212.231,145.200 211.788,147.400 211.570 C 149.600 211.353,152.750 210.915,154.400 210.598 C 156.050 210.280,158.390 209.831,159.600 209.600 C 160.810 209.368,163.510 208.909,165.600 208.579 C 167.690 208.250,170.197 207.714,171.171 207.390 C 172.145 207.065,173.303 206.800,173.743 206.800 C 174.550 206.800,180.854 205.410,186.400 204.010 C 188.050 203.593,191.470 202.778,194.000 202.199 C 196.530 201.620,199.680 200.808,201.000 200.394 C 202.320 199.980,205.020 199.177,207.000 198.611 C 213.761 196.675,216.200 195.955,218.000 195.361 C 218.990 195.035,221.240 194.330,223.000 193.795 C 224.760 193.260,227.190 192.445,228.400 191.984 C 229.610 191.523,231.500 190.877,232.600 190.548 C 233.700 190.219,235.140 189.712,235.800 189.420 C 236.460 189.128,237.450 188.760,238.000 188.603 C 238.550 188.445,239.360 188.094,239.800 187.822 C 240.240 187.549,241.140 187.194,241.800 187.032 C 242.460 186.871,243.540 186.490,244.200 186.187 C 244.860 185.884,246.120 185.373,247.000 185.052 C 251.259 183.498,254.220 182.317,254.591 182.023 C 254.816 181.844,255.450 181.566,256.000 181.404 C 258.161 180.770,270.446 175.173,271.129 174.512 C 271.419 174.231,271.869 174.000,272.129 174.000 C 272.838 174.000,277.660 171.499,278.471 170.710 C 278.861 170.331,279.633 169.907,280.187 169.768 C 280.741 169.628,281.095 169.354,280.974 169.157 C 280.592 168.540,279.073 168.789,277.000 169.809 C 275.900 170.350,274.813 170.794,274.585 170.796 C 274.356 170.798,273.463 171.160,272.600 171.600 C 271.737 172.040,270.749 172.400,270.404 172.400 C 270.060 172.400,269.423 172.646,268.989 172.946 C 268.555 173.246,267.300 173.767,266.200 174.103 C 264.341 174.671,256.412 177.598,254.600 178.384 C 253.373 178.917,248.204 180.627,244.200 181.825 C 242.220 182.417,239.898 183.158,239.040 183.472 C 238.182 183.785,235.752 184.570,233.640 185.216 C 231.528 185.863,228.720 186.741,227.400 187.168 C 226.080 187.595,224.370 188.062,223.600 188.207 C 222.830 188.351,220.848 188.887,219.195 189.398 C 217.542 189.909,213.132 191.065,209.395 191.968 C 205.658 192.870,201.160 193.955,199.400 194.380 C 197.640 194.804,194.400 195.536,192.200 196.006 C 190.000 196.476,186.670 197.194,184.800 197.601 C 182.930 198.009,180.590 198.454,179.600 198.590 C 178.610 198.726,175.910 199.177,173.600 199.592 C 171.290 200.007,167.600 200.550,165.400 200.798 C 163.200 201.047,160.590 201.415,159.600 201.617 C 158.610 201.819,155.010 202.171,151.600 202.398 C 148.190 202.625,141.710 203.074,137.200 203.397 C 123.706 204.362,117.618 204.185,101.800 202.370 C 93.534 201.422,84.554 199.448,81.000 197.799 C 80.340 197.493,78.540 196.674,77.000 195.979 C 63.762 190.009,58.355 179.343,62.514 167.400 C 63.437 164.749,63.778 164.049,66.025 160.200 C 68.204 156.469,71.697 152.261,77.169 146.778 C 82.717 141.219,85.199 138.973,90.563 134.658 C 91.862 133.613,93.733 132.047,94.719 131.179 L 96.513 129.600 95.156 129.649 C 94.410 129.676,92.970 130.171,91.956 130.749 M342.336 130.409 C 338.092 132.651,337.603 137.787,341.385 140.390 C 347.354 144.497,354.421 137.690,349.892 132.195 C 347.774 129.626,345.041 128.980,342.336 130.409 M85.400 137.200 C 85.264 137.420,84.758 137.587,84.276 137.572 C 83.431 137.545,83.429 137.531,84.200 137.200 C 85.301 136.727,85.692 136.727,85.400 137.200 M83.600 138.354 C 83.600 138.548,81.062 141.203,77.960 144.254 C 59.499 162.407,55.242 176.779,64.846 188.523 C 68.455 192.936,77.447 198.272,83.200 199.414 C 83.970 199.567,84.804 199.856,85.053 200.057 C 85.303 200.257,86.833 200.677,88.453 200.990 C 90.074 201.303,91.940 201.741,92.600 201.962 C 93.673 202.322,98.881 203.038,107.600 204.025 C 116.543 205.037,138.194 204.826,147.639 203.636 C 149.268 203.430,153.120 203.057,156.200 202.806 C 159.280 202.555,163.060 202.099,164.600 201.794 C 166.140 201.489,168.840 201.123,170.600 200.980 C 172.360 200.837,174.520 200.471,175.400 200.166 C 176.280 199.862,178.170 199.509,179.600 199.383 C 181.030 199.257,183.730 198.806,185.600 198.381 C 187.470 197.956,190.800 197.239,193.000 196.789 C 198.256 195.712,206.676 193.757,210.265 192.780 C 211.841 192.351,213.387 192.000,213.701 192.000 C 214.014 192.000,215.785 191.543,217.635 190.984 C 219.486 190.426,222.260 189.599,223.800 189.146 C 225.340 188.693,227.140 188.146,227.800 187.930 C 228.460 187.713,230.014 187.287,231.254 186.983 C 232.494 186.679,234.114 186.177,234.854 185.868 C 235.594 185.559,237.460 184.924,239.000 184.458 C 245.561 182.473,251.086 180.682,252.260 180.160 C 253.690 179.525,256.238 179.414,256.582 179.971 C 256.810 180.340,256.475 180.485,254.232 180.988 C 253.589 181.132,252.620 181.598,252.078 182.025 C 251.536 182.451,250.604 182.800,250.007 182.800 C 249.411 182.800,248.529 183.141,248.049 183.558 C 247.568 183.975,246.505 184.438,245.687 184.587 C 244.869 184.737,243.815 185.107,243.344 185.410 C 242.873 185.713,241.523 186.303,240.344 186.721 C 232.517 189.496,227.699 191.138,221.200 193.244 C 217.130 194.564,213.260 195.829,212.600 196.056 C 211.940 196.283,210.410 196.730,209.200 197.049 C 207.990 197.368,206.640 197.793,206.200 197.993 C 204.345 198.836,194.715 201.315,189.146 202.383 C 187.027 202.790,184.938 203.312,184.504 203.544 C 184.071 203.776,182.477 204.164,180.964 204.406 C 179.450 204.648,177.399 205.087,176.406 205.381 C 175.413 205.676,173.520 206.095,172.200 206.313 C 170.880 206.531,168.450 206.984,166.800 207.321 C 137.984 213.196,103.215 215.117,82.200 211.995 C 74.900 210.910,63.438 208.137,62.165 207.148 C 61.926 206.963,61.005 206.555,60.118 206.242 C 59.231 205.929,57.293 204.936,55.812 204.036 C 54.330 203.136,53.030 202.400,52.923 202.400 C 52.371 202.400,48.235 198.466,47.042 196.806 C 43.954 192.506,42.341 185.510,43.536 181.593 C 45.814 174.126,47.871 170.123,52.233 164.671 C 57.965 157.506,69.299 146.896,75.420 142.965 C 76.633 142.187,79.815 139.906,80.695 139.184 C 81.760 138.311,83.600 137.785,83.600 138.354 M328.816 148.248 C 323.894 152.389,327.356 159.435,333.726 158.240 C 337.788 157.478,339.255 151.934,336.219 148.821 C 334.164 146.714,330.936 146.464,328.816 148.248 M314.147 162.367 C 312.182 163.565,311.600 164.696,311.600 167.316 C 311.600 172.120,316.934 174.320,320.440 170.962 C 324.830 166.756,319.311 159.218,314.147 162.367 M297.360 175.470 C 292.818 177.736,294.462 185.132,299.520 185.186 C 303.440 185.228,306.130 180.591,303.995 177.474 C 302.272 174.960,299.849 174.228,297.360 175.470 M260.626 178.358 C 260.375 178.764,257.200 179.152,257.200 178.777 C 257.200 178.229,257.815 178.000,259.290 178.000 C 260.147 178.000,260.748 178.161,260.626 178.358 M279.321 186.805 C 277.443 187.561,276.400 191.235,277.440 193.428 C 279.369 197.493,284.601 197.243,286.218 193.009 C 287.785 188.905,283.555 185.100,279.321 186.805 M261.331 197.201 C 260.110 197.693,258.400 200.358,258.400 201.768 C 258.400 205.507,263.122 207.760,265.958 205.374 C 270.042 201.937,266.241 195.222,261.331 197.201 M241.989 207.059 C 239.035 209.026,239.207 213.775,242.278 215.058 C 246.081 216.647,249.826 212.780,247.983 209.167 C 246.617 206.488,244.149 205.620,241.989 207.059 M222.078 216.596 C 220.057 218.297,220.141 221.108,222.270 222.981 C 224.244 224.717,227.178 223.908,228.254 221.332 C 229.916 217.355,225.343 213.848,222.078 216.596 M202.182 224.582 C 199.811 226.953,201.456 231.200,204.746 231.200 C 208.061 231.200,209.755 226.352,207.142 224.342 C 205.745 223.268,203.382 223.382,202.182 224.582 M182.369 231.969 C 180.146 234.192,181.654 238.400,184.673 238.400 C 186.157 238.400,188.000 236.361,188.000 234.720 C 188.000 231.190,184.741 229.598,182.369 231.969 M162.573 238.122 C 160.638 239.786,161.256 243.503,163.569 244.108 C 164.744 244.415,166.772 243.327,167.220 242.149 C 168.468 238.865,165.101 235.947,162.573 238.122 M142.089 243.823 C 140.331 245.054,141.049 248.390,143.236 249.153 C 144.385 249.553,144.585 249.487,145.644 248.352 C 148.239 245.575,145.169 241.665,142.089 243.823 M122.160 248.306 C 120.630 249.328,120.459 251.515,121.796 252.958 C 122.861 254.107,123.934 253.936,125.087 252.435 C 126.566 250.509,124.090 247.017,122.160 248.306 M100.754 253.056 C 99.669 254.363,100.590 256.800,102.169 256.800 C 103.381 256.800,104.000 256.056,104.000 254.600 C 104.000 252.527,101.987 251.569,100.754 253.056 M76.700 258.432 C 75.805 258.953,75.813 259.680,76.725 260.806 C 77.669 261.973,79.031 261.595,79.320 260.087 C 79.668 258.277,78.372 257.458,76.700 258.432 " stroke="none" fill="#f48e29" fill-rule="evenodd"></path><path id="path4" d="M170.942 42.792 C 166.303 44.690,165.332 50.837,168.465 58.468 C 170.540 63.523,171.533 66.531,171.808 68.600 C 171.954 69.700,172.417 72.338,172.837 74.463 C 173.670 78.679,173.849 85.912,173.187 88.600 C 172.970 89.480,172.518 91.460,172.182 93.000 C 171.563 95.838,170.911 97.476,168.677 101.800 C 167.994 103.120,166.500 106.090,165.355 108.400 C 159.603 120.007,156.276 126.660,149.355 140.401 C 145.200 148.652,141.062 156.932,140.159 158.801 C 139.257 160.670,134.532 170.096,129.659 179.748 C 124.787 189.399,120.800 197.628,120.800 198.034 C 120.800 199.250,122.120 199.600,126.704 199.600 C 131.589 199.600,131.880 199.455,133.512 196.200 C 135.263 192.709,132.415 193.011,164.496 192.913 C 194.742 192.821,194.400 192.843,194.400 191.000 C 194.400 188.982,194.767 189.009,165.692 188.887 C 134.197 188.754,136.955 189.260,139.492 184.083 C 140.430 182.167,141.258 180.420,141.332 180.200 C 141.419 179.942,150.524 179.729,167.033 179.600 C 193.480 179.393,193.797 179.372,194.098 177.799 C 194.584 175.255,194.027 175.200,167.903 175.200 L 144.800 175.200 144.800 174.363 C 144.800 173.189,147.861 167.245,148.922 166.360 C 149.749 165.669,151.050 165.626,171.326 165.613 C 193.427 165.600,194.400 165.532,194.400 164.014 C 194.400 161.978,194.632 162.000,173.352 162.000 C 156.398 162.000,153.391 161.913,152.381 161.390 L 151.201 160.780 152.845 157.490 C 155.460 152.255,153.028 152.801,173.762 152.794 C 193.561 152.788,193.703 152.772,193.922 150.542 C 194.108 148.641,193.901 148.617,175.400 148.401 L 158.200 148.200 158.308 147.200 C 158.472 145.684,161.157 140.475,162.125 139.798 C 162.845 139.293,165.331 139.200,178.080 139.200 L 193.182 139.200 193.837 138.200 C 194.444 137.274,194.444 137.126,193.837 136.200 L 193.182 135.200 179.405 135.200 C 162.965 135.200,163.820 135.510,166.384 130.480 C 168.815 125.708,167.630 126.078,181.000 125.916 C 193.968 125.758,194.096 125.736,193.921 123.649 L 193.800 122.200 183.200 122.000 C 169.975 121.750,170.724 122.143,173.300 116.817 C 175.671 111.915,175.461 112.000,185.210 112.000 C 192.946 112.000,193.171 111.977,193.772 111.119 C 195.222 109.049,194.096 108.624,186.552 108.395 C 177.304 108.113,177.479 108.257,179.986 102.981 C 181.950 98.847,182.041 98.800,188.094 98.800 C 193.444 98.800,194.000 98.606,194.000 96.744 C 194.000 95.188,193.539 95.024,188.533 94.800 C 183.156 94.559,183.446 94.809,183.546 90.499 C 183.656 85.708,183.919 85.464,189.263 85.200 C 196.541 84.840,196.405 81.610,189.105 81.473 C 183.823 81.374,183.680 81.220,183.537 75.518 C 183.407 70.299,183.051 70.642,188.849 70.400 C 193.831 70.192,194.515 69.927,194.108 68.369 C 193.763 67.052,193.090 66.881,187.685 66.739 C 181.334 66.573,181.932 67.158,179.786 59.000 C 179.496 57.900,179.001 56.504,178.686 55.897 C 178.370 55.291,178.198 54.346,178.303 53.797 L 178.493 52.800 194.839 52.800 L 211.185 52.800 211.443 53.831 C 211.611 54.500,211.346 55.798,210.687 57.531 C 205.077 72.274,204.339 89.393,208.848 100.200 C 209.608 102.022,213.669 110.292,216.999 116.800 C 217.731 118.230,220.924 124.620,224.096 131.000 C 227.267 137.380,232.572 148.000,235.885 154.600 C 239.198 161.200,243.044 168.899,244.432 171.709 C 247.151 177.210,248.000 178.400,249.206 178.400 C 249.861 178.400,249.923 178.550,249.610 179.373 L 249.240 180.347 251.065 179.673 C 252.881 179.003,252.884 178.999,251.745 178.714 C 250.969 178.519,251.195 178.482,252.448 178.599 C 253.465 178.693,254.422 178.642,254.576 178.485 C 254.730 178.328,255.699 177.899,256.728 177.531 C 257.940 177.098,258.286 176.851,257.710 176.831 C 256.935 176.804,256.868 176.674,257.190 175.827 C 257.741 174.377,257.458 173.703,250.375 159.600 C 246.784 152.450,240.269 139.400,235.897 130.600 C 231.525 121.800,227.788 114.330,227.592 114.000 C 227.396 113.670,225.639 110.250,223.687 106.400 C 221.734 102.550,219.942 99.040,219.702 98.600 C 216.835 93.326,215.854 74.153,218.168 68.615 C 218.486 67.854,218.873 66.369,219.027 65.315 C 219.182 64.262,219.634 62.770,220.032 62.000 C 224.196 53.945,224.283 46.439,220.246 43.425 C 219.053 42.534,173.017 41.943,170.942 42.792 M219.113 44.385 C 222.233 46.725,222.697 50.415,220.625 56.400 C 217.447 65.581,216.751 67.911,216.385 70.600 C 216.175 72.140,215.827 74.120,215.611 75.000 C 215.083 77.156,215.094 87.058,215.627 88.803 C 215.861 89.571,216.203 91.314,216.385 92.675 C 216.567 94.036,217.005 95.728,217.358 96.436 C 217.711 97.144,218.000 97.904,218.000 98.124 C 218.000 98.494,248.108 159.338,249.410 161.600 C 250.737 163.905,255.156 173.079,255.390 174.015 C 255.611 174.897,255.444 175.127,254.122 175.765 C 249.331 178.075,249.359 178.097,244.240 167.937 C 241.875 163.242,239.788 159.130,239.603 158.800 C 239.417 158.470,236.182 151.990,232.413 144.400 C 228.644 136.810,225.402 130.330,225.209 130.000 C 225.016 129.670,224.143 127.960,223.268 126.200 C 222.394 124.440,221.129 121.920,220.458 120.600 C 209.142 98.354,208.059 95.362,207.350 84.400 C 207.115 80.773,208.295 70.452,209.351 66.890 C 209.659 65.851,210.325 63.560,210.830 61.800 C 211.336 60.040,212.062 57.880,212.445 57.000 C 215.040 51.024,215.568 51.200,195.016 51.200 C 174.741 51.200,175.925 50.900,177.254 55.697 C 177.684 57.250,178.196 58.819,178.392 59.185 C 178.588 59.550,179.028 61.057,179.370 62.533 C 180.065 65.530,181.353 68.330,182.183 68.649 C 182.633 68.822,182.616 69.055,182.087 69.978 C 181.495 71.009,181.498 71.379,182.125 74.649 C 182.499 76.602,182.804 78.867,182.803 79.681 C 182.800 81.440,183.521 83.200,184.246 83.200 C 184.543 83.200,184.346 83.618,183.782 84.182 C 183.041 84.922,182.800 85.590,182.800 86.898 C 182.800 87.852,182.517 89.705,182.172 91.016 C 181.825 92.332,181.644 94.049,181.768 94.849 C 181.943 95.978,181.773 96.623,180.997 97.767 C 180.448 98.575,180.000 99.317,180.000 99.417 C 180.000 99.517,179.295 101.174,178.432 103.099 C 177.570 105.025,176.736 107.478,176.579 108.551 C 176.374 109.952,176.088 110.556,175.566 110.693 C 174.697 110.920,174.159 111.706,171.773 116.229 C 169.986 119.617,169.585 121.168,170.161 122.462 C 170.381 122.956,170.019 123.424,168.728 124.312 C 167.400 125.227,166.676 126.185,165.600 128.451 C 164.830 130.073,164.029 131.523,163.821 131.673 C 163.612 131.823,163.366 133.122,163.275 134.560 C 163.120 136.991,163.020 137.227,161.854 137.916 C 160.007 139.008,155.705 147.502,156.371 148.745 C 156.780 149.510,156.615 149.823,154.895 151.543 C 152.888 153.550,149.600 159.584,149.600 161.260 C 149.600 163.663,149.003 163.597,170.962 163.628 C 181.983 163.644,191.360 163.811,191.800 164.000 C 192.261 164.198,183.537 164.365,171.200 164.394 C 155.779 164.431,149.413 164.579,148.413 164.923 C 146.049 165.737,141.886 174.617,143.153 176.144 C 143.478 176.535,143.204 176.943,142.018 177.830 C 140.967 178.616,139.887 180.079,138.727 182.289 C 137.777 184.097,136.778 185.987,136.506 186.489 C 135.850 187.699,135.867 189.792,136.538 190.348 C 136.919 190.665,145.038 190.825,164.438 190.900 L 191.800 191.006 163.800 191.104 C 131.426 191.218,134.332 190.816,132.000 195.503 C 130.497 198.523,130.060 198.800,126.800 198.800 C 122.128 198.800,122.040 198.489,125.049 192.600 C 126.778 189.216,153.222 136.459,161.600 119.679 C 162.370 118.136,165.188 112.493,167.863 107.137 C 174.545 93.759,174.574 93.650,174.567 82.200 C 174.560 71.452,173.420 65.220,170.153 58.064 C 167.857 53.036,168.007 46.632,170.463 44.817 C 172.532 43.287,173.106 43.253,195.800 43.328 L 217.800 43.400 219.113 44.385 M268.976 208.230 C 263.879 211.297,263.835 210.629,269.924 222.600 C 272.581 227.824,272.856 228.584,272.291 229.149 C 271.966 229.474,265.099 229.600,247.799 229.600 L 223.759 229.600 220.579 230.561 C 218.831 231.089,215.870 232.094,214.000 232.794 C 212.130 233.493,209.790 234.309,208.800 234.606 C 203.569 236.178,200.814 237.342,199.785 238.415 L 198.676 239.573 199.794 239.998 C 201.983 240.830,277.821 240.311,280.059 239.449 C 284.706 237.658,286.544 232.927,284.428 228.200 C 282.811 224.589,274.935 208.767,274.322 207.900 C 273.260 206.395,271.885 206.480,268.976 208.230 M274.685 212.040 C 285.236 233.058,285.789 236.672,278.664 238.040 C 276.764 238.405,206.163 238.548,205.581 238.188 C 204.819 237.717,205.232 237.283,206.700 237.011 C 207.525 236.859,208.740 236.484,209.400 236.179 C 211.787 235.077,219.855 232.291,222.200 231.760 C 224.076 231.335,229.925 231.214,249.000 231.202 C 262.420 231.194,273.596 231.056,273.835 230.894 C 275.203 229.970,274.808 228.634,270.779 220.555 C 266.183 211.338,266.179 211.303,269.727 209.486 C 272.317 208.160,272.884 208.452,274.685 212.040 M125.144 294.365 L 124.200 295.129 124.086 319.865 C 124.024 333.469,124.072 345.002,124.192 345.493 C 124.981 348.701,132.670 348.124,133.400 344.802 C 133.715 343.368,135.772 343.843,137.867 345.834 C 138.611 346.540,145.016 347.667,146.694 347.387 C 152.618 346.395,160.400 341.224,160.400 338.278 C 160.400 338.050,160.654 337.579,160.965 337.231 C 163.831 334.029,163.607 322.160,160.583 317.010 C 155.579 308.487,143.053 305.137,136.494 310.568 C 133.388 313.139,133.167 312.645,133.216 303.237 C 133.238 299.147,133.128 295.471,132.973 295.069 C 132.348 293.451,126.881 292.959,125.144 294.365 M131.447 296.492 C 132.029 297.616,132.087 298.801,131.896 305.651 C 131.744 311.124,131.812 313.652,132.119 313.959 C 132.892 314.732,134.331 314.436,135.720 313.217 C 143.177 306.669,155.409 309.664,160.119 319.191 C 162.066 323.128,162.073 332.002,160.133 336.030 C 156.186 344.228,146.511 348.234,139.138 344.723 C 137.893 344.130,136.765 343.466,136.630 343.248 C 136.321 342.748,134.048 341.600,133.367 341.600 C 132.436 341.600,131.600 342.839,131.600 344.221 C 131.600 345.818,130.913 346.124,127.773 345.925 L 125.800 345.800 125.697 321.279 C 125.628 304.832,125.731 296.502,126.011 295.979 C 126.796 294.513,130.610 294.873,131.447 296.492 M45.200 297.600 C 43.976 298.824,43.943 344.947,45.165 346.456 L 45.929 347.400 60.123 347.400 C 77.039 347.400,76.000 347.701,76.000 342.800 C 76.000 338.065,76.387 338.226,64.659 338.078 C 56.283 337.971,54.934 337.868,54.500 337.301 C 54.116 336.799,54.000 332.171,54.000 317.346 L 54.000 298.045 53.111 297.423 C 51.699 296.434,46.244 296.556,45.200 297.600 M191.270 297.726 L 190.400 298.652 190.400 321.893 C 190.400 334.676,190.512 345.426,190.648 345.782 C 191.292 347.459,192.518 347.600,206.480 347.599 C 222.405 347.597,222.400 347.598,222.400 343.856 C 222.400 337.943,222.343 337.916,210.309 338.038 C 201.724 338.126,201.048 338.081,200.543 337.390 C 200.104 336.789,200.000 333.013,200.000 317.613 C 200.000 295.036,200.386 296.800,195.447 296.800 C 192.507 296.800,192.043 296.903,191.270 297.726 M51.920 298.480 C 52.280 298.840,52.400 303.782,52.400 318.258 L 52.400 337.555 53.365 338.678 L 54.331 339.800 63.565 339.877 C 74.215 339.966,74.149 339.947,74.517 343.096 C 74.726 344.890,74.653 345.251,74.007 345.596 C 73.093 346.086,47.247 346.144,46.481 345.659 C 45.743 345.190,45.770 298.794,46.509 298.324 C 47.285 297.831,51.389 297.949,51.920 298.480 M198.800 318.286 C 198.985 336.871,199.053 338.425,199.714 339.086 C 200.352 339.725,201.455 339.813,210.213 339.926 C 221.406 340.070,220.940 339.902,220.720 343.712 L 220.600 345.800 206.400 345.800 L 192.200 345.800 192.096 322.400 C 192.039 309.530,192.081 298.767,192.190 298.483 C 192.334 298.107,193.236 297.998,195.494 298.083 L 198.600 298.200 198.800 318.286 M92.804 308.622 C 85.257 310.721,82.179 314.070,85.107 316.997 C 86.655 318.546,87.648 318.607,90.887 317.349 C 96.762 315.067,102.884 315.882,104.585 319.172 C 105.748 321.420,104.700 322.000,99.477 322.001 C 86.247 322.002,80.636 325.690,80.611 334.400 C 80.579 345.391,92.212 350.989,103.018 345.183 L 105.036 344.098 105.932 345.464 C 107.799 348.312,112.476 348.465,113.935 345.726 C 115.225 343.303,114.283 318.463,112.783 315.364 C 109.912 309.435,100.863 306.381,92.804 308.622 M242.400 308.273 C 236.718 309.441,231.224 313.884,228.559 319.468 C 226.348 324.100,226.541 331.918,228.987 336.773 C 236.960 352.607,261.762 350.102,266.213 333.015 C 269.999 318.478,257.241 305.221,242.400 308.273 M284.762 308.586 C 265.582 315.647,269.591 345.999,289.705 346.000 C 291.633 346.000,293.523 345.825,293.905 345.610 C 294.287 345.396,295.230 344.942,296.000 344.602 C 296.770 344.262,298.115 343.547,298.989 343.013 C 300.761 341.931,301.186 342.160,301.190 344.200 C 301.194 347.171,298.449 352.800,296.996 352.800 C 296.883 352.800,295.945 353.198,294.910 353.685 C 291.286 355.388,287.689 354.966,281.703 352.136 C 279.114 350.912,278.400 351.110,276.825 353.488 C 274.561 356.906,275.844 359.589,280.413 360.994 C 280.956 361.161,281.580 361.428,281.800 361.587 C 283.976 363.159,295.216 363.225,298.478 361.686 C 299.511 361.199,300.467 360.800,300.602 360.800 C 300.927 360.800,304.037 358.380,304.800 357.534 C 309.529 352.285,309.697 351.338,309.893 328.789 C 310.087 306.588,310.392 308.000,305.400 308.000 C 302.375 308.000,300.800 308.909,300.800 310.654 C 300.800 311.509,299.377 311.296,297.759 310.198 C 294.704 308.125,288.204 307.319,284.762 308.586 M331.519 308.772 C 312.099 314.982,313.175 342.649,333.000 346.844 C 351.189 350.693,363.763 332.735,354.251 316.495 C 350.407 309.932,339.491 306.223,331.519 308.772 M308.255 310.443 C 308.445 310.868,308.501 319.447,308.379 329.507 L 308.158 347.800 307.138 350.687 C 304.023 359.504,294.553 363.852,284.689 360.992 C 278.059 359.070,276.248 357.316,277.986 354.500 C 278.984 352.883,279.592 352.879,283.045 354.467 C 291.163 358.200,299.846 355.375,301.937 348.321 C 304.021 341.290,302.366 337.321,298.860 340.939 C 295.529 344.375,287.697 345.507,283.000 343.231 C 281.126 342.323,276.400 337.933,276.400 337.101 C 276.400 336.893,276.038 336.215,275.596 335.594 C 274.505 334.062,273.837 328.826,274.190 324.580 C 275.246 311.909,287.515 305.701,298.127 312.470 C 300.862 314.215,302.024 314.099,302.445 312.041 C 302.980 309.424,307.271 308.244,308.255 310.443 M104.800 310.504 C 108.306 311.806,110.039 313.323,111.532 316.400 L 112.600 318.600 112.600 332.200 L 112.600 345.800 110.213 345.800 L 107.826 345.800 107.383 344.221 C 106.767 342.028,105.411 341.678,103.323 343.172 C 94.194 349.705,82.037 344.815,82.006 334.597 C 81.983 326.968,86.544 324.045,98.520 324.014 C 106.132 323.995,107.671 323.051,106.395 319.184 C 104.820 314.414,95.184 312.707,89.714 316.229 C 87.592 317.596,84.902 315.851,85.992 313.814 C 87.699 310.626,99.523 308.545,104.800 310.504 M252.704 310.462 C 265.343 313.602,269.536 331.316,259.888 340.815 C 250.618 349.942,233.888 346.537,229.462 334.623 C 223.907 319.667,236.609 306.462,252.704 310.462 M343.800 310.514 C 352.658 313.325,357.899 322.856,355.642 332.050 C 350.500 352.990,319.200 349.340,319.200 327.800 C 319.200 315.249,331.494 306.610,343.800 310.514 M287.443 314.796 C 279.566 317.312,277.131 329.051,283.113 335.673 C 288.699 341.855,299.450 339.060,301.761 330.825 C 304.601 320.704,296.687 311.843,287.443 314.796 M140.037 315.264 C 131.986 317.577,129.026 329.504,134.793 336.392 C 141.284 344.145,153.147 340.809,155.202 330.652 C 157.162 320.962,149.006 312.686,140.037 315.264 M242.694 315.532 C 229.458 320.171,233.511 341.839,247.400 340.693 C 263.442 339.368,262.675 314.594,246.600 314.834 C 245.500 314.851,243.742 315.165,242.694 315.532 M334.355 315.222 C 329.001 316.490,325.200 321.754,325.200 327.901 C 325.200 341.283,342.445 345.606,348.735 333.800 C 350.054 331.324,350.248 324.750,349.065 322.600 C 348.702 321.940,348.399 321.220,348.392 321.000 C 348.373 320.444,345.980 317.925,344.404 316.803 C 342.086 315.153,337.618 314.450,334.355 315.222 M296.016 317.229 C 305.667 324.043,299.317 340.335,288.300 337.026 C 279.474 334.375,279.077 319.236,287.757 316.317 C 289.674 315.672,294.578 316.214,296.016 317.229 M146.600 316.800 C 146.736 317.020,147.164 317.200,147.552 317.200 C 148.845 317.200,151.660 320.056,152.853 322.577 C 156.521 330.331,151.668 338.806,143.565 338.797 C 132.243 338.784,129.109 322.584,139.400 317.263 C 141.128 316.369,146.135 316.047,146.600 316.800 M250.885 317.228 C 262.065 321.605,259.097 338.800,247.162 338.800 C 239.962 338.800,236.292 335.031,236.257 327.600 C 236.218 319.278,243.298 314.258,250.885 317.228 M341.680 317.261 C 350.100 320.331,350.773 333.752,342.709 337.770 C 334.878 341.673,327.000 336.659,327.000 327.772 C 327.000 319.195,333.743 314.367,341.680 317.261 M94.800 327.971 C 84.388 329.210,85.996 340.780,96.600 340.919 C 102.540 340.997,106.800 336.883,106.800 331.067 C 106.800 328.005,102.922 327.004,94.800 327.971 M104.146 329.629 C 106.934 331.822,104.094 337.511,99.562 338.811 C 93.081 340.670,87.296 336.288,90.259 331.765 C 92.013 329.089,101.587 327.616,104.146 329.629 " stroke="none" fill="#747cac" fill-rule="evenodd"></path></g></svg>